<?xml version="1.0" standalone="no"?>
<!DOCTYPE svg PUBLIC "-//W3C//DTD SVG 20010904//EN"
 "http://www.w3.org/TR/2001/REC-SVG-20010904/DTD/svg10.dtd">
<svg version="1.0" xmlns="http://www.w3.org/2000/svg"
 width="558.000000pt" height="558.000000pt" viewBox="0 0 558.000000 558.000000"
 preserveAspectRatio="xMidYMid meet">
<metadata>
Created by potrace 1.14, written by Peter Selinger 2001-2017
</metadata>
<g transform="translate(0.000000,558.000000) scale(0.100000,-0.100000)"
fill="#000000" stroke="none">
<path d="M2680 5420 c0 -3 -25 -5 -55 -5 -30 0 -55 -3 -55 -6 0 -4 -10 -5 -22
-5 -13 1 -28 -2 -34 -6 -7 -5 -16 -8 -20 -7 -27 7 -195 -46 -299 -92 -27 -13
-53 -22 -57 -21 -5 1 -8 -2 -8 -6 0 -5 -16 -14 -35 -22 -19 -8 -35 -16 -35
-19 0 -4 -13 -12 -28 -19 -16 -7 -51 -29 -79 -50 -28 -20 -61 -44 -74 -52 -78
-51 -277 -275 -346 -390 -57 -95 -144 -286 -158 -350 -2 -8 -10 -44 -19 -80
-37 -158 -51 -346 -35 -457 3 -25 1 -47 -5 -54 -8 -9 -8 -10 1 -5 7 4 11 0 11
-11 -1 -29 16 -119 47 -243 25 -99 108 -271 190 -395 76 -114 160 -209 273
-307 29 -26 35 -58 11 -58 -10 0 -147 -134 -194 -190 -58 -69 -120 -161 -167
-250 -33 -62 -107 -238 -113 -270 -2 -8 -8 -33 -14 -55 -6 -22 -12 -51 -15
-65 -2 -14 -5 -25 -6 -25 -7 0 -23 -198 -23 -285 0 -114 10 -207 34 -315 12
-49 21 -96 22 -102 0 -7 4 -13 9 -13 4 0 8 -11 8 -25 0 -14 5 -25 11 -25 5 0
7 -4 4 -10 -3 -5 9 -43 28 -82 18 -40 40 -88 48 -105 7 -18 18 -33 22 -33 5 0
6 -4 3 -9 -3 -5 1 -14 9 -21 8 -7 15 -19 15 -26 0 -8 5 -14 10 -14 6 0 10 -5
10 -10 0 -6 5 -16 10 -23 6 -7 27 -35 48 -62 70 -95 165 -195 247 -260 28 -22
52 -42 55 -45 3 -3 34 -25 70 -49 108 -71 328 -171 405 -183 11 -2 22 -6 25
-10 3 -3 57 -15 120 -26 92 -16 150 -20 290 -17 96 1 186 6 200 9 14 3 39 8
55 10 17 2 42 9 58 15 15 6 27 8 27 5 0 -2 8 0 18 5 9 5 31 11 47 14 35 6 181
64 210 84 11 7 27 13 36 13 10 0 19 4 21 8 2 4 26 21 53 36 139 80 309 228
404 351 17 22 35 45 39 51 5 5 22 30 38 55 16 24 31 46 35 49 9 8 106 212 114
240 4 14 13 39 20 55 11 25 45 155 50 190 1 6 3 12 4 15 8 18 16 147 16 270 0
160 -8 242 -33 334 -6 20 -8 36 -5 36 3 0 0 7 -7 15 -7 8 -10 15 -7 15 8 0
-48 153 -78 216 -14 28 -25 56 -25 62 0 7 -4 12 -10 12 -5 0 -10 7 -10 15 0 8
-5 15 -12 15 -6 0 -8 3 -5 6 8 8 -112 184 -162 238 -81 86 -109 114 -175 170
-60 50 -218 159 -235 162 -3 0 -44 19 -91 42 -47 22 -110 48 -140 58 -30 9
-60 21 -66 25 -6 5 -14 6 -17 3 -3 -3 -11 -2 -19 2 -7 4 -24 8 -38 9 -14 1
-30 4 -36 7 -20 13 -141 27 -289 33 -133 6 -161 10 -234 31 -31 9 -60 17 -66
18 -50 10 -254 133 -255 154 0 6 -6 12 -14 12 -7 0 -33 23 -57 52 -24 28 -48
56 -54 62 -22 24 -65 93 -65 104 0 7 -5 12 -12 12 -6 0 -8 3 -5 7 4 3 3 11 -2
17 -12 15 -51 112 -62 156 -30 118 -32 318 -5 415 9 33 19 68 21 77 2 9 9 27
16 40 8 13 14 25 14 28 4 18 36 74 73 130 49 73 145 170 212 217 40 27 167 97
180 98 27 4 70 18 70 23 0 4 10 8 23 9 12 0 36 4 52 8 58 13 249 13 310 0 33
-7 60 -14 60 -15 0 -1 13 -4 30 -6 16 -3 34 -9 40 -13 5 -4 29 -13 53 -21 23
-7 47 -19 53 -27 6 -7 16 -13 21 -13 19 0 138 -91 194 -148 57 -58 128 -159
157 -222 29 -62 66 -186 74 -241 11 -88 6 -219 -12 -294 -9 -38 -18 -78 -20
-89 -3 -10 -9 -24 -16 -32 -6 -8 -8 -14 -4 -14 4 0 2 -7 -5 -15 -7 -8 -9 -15
-5 -15 4 0 2 -7 -5 -15 -7 -9 -11 -17 -9 -19 13 -10 265 -130 268 -128 2 2 7
0 10 -5 5 -7 217 -115 231 -118 3 0 16 -7 30 -15 14 -7 27 -13 29 -12 14 4
101 241 101 274 0 10 4 18 8 18 4 0 8 8 8 18 1 9 4 35 8 57 3 22 10 65 15 95
11 66 11 316 0 374 -4 23 -9 57 -12 76 -3 19 -8 46 -11 60 -3 14 -8 35 -10 48
-3 12 -8 27 -11 32 -3 5 -8 18 -10 27 -15 78 -151 367 -184 393 -3 3 -22 28
-41 55 -97 141 -284 309 -447 401 -135 77 -290 138 -403 160 -14 2 -32 7 -39
10 -8 3 -35 7 -60 10 -67 8 -96 12 -96 14 0 1 -57 2 -127 3 -71 1 -128 0 -128
-3z m287 -2971 c48 -10 95 -22 103 -26 8 -3 17 -7 20 -7 21 -4 136 -67 185
-101 69 -49 195 -173 195 -192 0 -7 4 -13 8 -13 10 0 69 -100 62 -105 -3 -1 2
-11 11 -21 15 -19 56 -128 64 -175 25 -138 25 -257 0 -359 -20 -85 -29 -110
-37 -110 -5 0 -6 -5 -3 -10 6 -10 -43 -115 -76 -162 -10 -14 -19 -31 -19 -38
0 -6 -4 -9 -9 -5 -5 3 -12 -3 -15 -12 -9 -26 -174 -183 -193 -183 -3 0 -14 -6
-22 -14 -29 -24 -133 -73 -201 -94 -169 -53 -398 -45 -545 17 -83 36 -108 49
-166 87 -63 41 -135 106 -189 170 -62 72 -137 217 -159 309 -7 28 -15 59 -18
70 -10 37 -10 257 -1 299 6 22 11 48 13 56 2 8 4 16 5 18 2 1 3 5 5 10 1 4 5
21 10 37 18 66 83 187 128 236 9 10 14 19 10 19 -13 0 132 136 179 168 80 54
213 114 288 129 87 17 114 20 192 20 52 1 122 -6 175 -18z"/>
<path d="M2750 4230 c0 -3 -11 -7 -25 -8 -72 -6 -164 -86 -195 -169 -48 -130
-7 -259 112 -348 71 -53 222 -51 308 4 38 25 89 84 97 111 3 14 11 28 16 31
11 7 14 140 4 176 -11 42 -41 89 -83 131 -24 24 -44 40 -44 36 0 -3 -7 -1 -15
6 -8 7 -15 9 -15 5 0 -4 -7 -2 -15 5 -15 13 -145 31 -145 20z"/>
</g>
</svg>
